<svg width="48" height="48" viewBox="0 0 48 48" fill="none" xmlns="http://www.w3.org/2000/svg">
<rect width="48" height="48" rx="24" fill="#101010"/>
<path opacity="0.2" d="M33.7499 18.75L31.3471 27.4012C31.2596 27.7165 31.0715 27.9944 30.8113 28.1928C30.5512 28.3912 30.2333 28.499 29.9062 28.5H20.6399C20.3122 28.4999 19.9935 28.3924 19.7326 28.1939C19.4717 27.9955 19.2829 27.7171 19.1953 27.4012L16.7915 18.75H33.7499Z" fill="#F7F7F7"/>
<path d="M21.75 32.25C21.75 32.5467 21.662 32.8367 21.4972 33.0834C21.3324 33.33 21.0981 33.5223 20.824 33.6358C20.5499 33.7494 20.2483 33.7791 19.9574 33.7212C19.6664 33.6633 19.3991 33.5204 19.1893 33.3107C18.9796 33.1009 18.8367 32.8336 18.7788 32.5426C18.7209 32.2517 18.7506 31.9501 18.8642 31.676C18.9777 31.4019 19.17 31.1676 19.4166 31.0028C19.6633 30.838 19.9533 30.75 20.25 30.75C20.6478 30.75 21.0294 30.908 21.3107 31.1893C21.592 31.4706 21.75 31.8522 21.75 32.25ZM30 30.75C29.7033 30.75 29.4133 30.838 29.1666 31.0028C28.92 31.1676 28.7277 31.4019 28.6142 31.676C28.5006 31.9501 28.4709 32.2517 28.5288 32.5426C28.5867 32.8336 28.7296 33.1009 28.9393 33.3107C29.1491 33.5204 29.4164 33.6633 29.7074 33.7212C29.9983 33.7791 30.2999 33.7494 30.574 33.6358C30.8481 33.5223 31.0824 33.33 31.2472 33.0834C31.412 32.8367 31.5 32.5467 31.5 32.25C31.5 31.8522 31.342 31.4706 31.0607 31.1893C30.7794 30.908 30.3978 30.75 30 30.75ZM34.4728 18.9506L32.0691 27.6019C31.9369 28.0745 31.6542 28.4911 31.2639 28.7885C30.8736 29.0859 30.397 29.2479 29.9062 29.25H20.64C20.1478 29.2498 19.6693 29.0886 19.2772 28.791C18.8852 28.4935 18.6013 28.0758 18.4688 27.6019L15.18 15.75H13.5C13.3011 15.75 13.1103 15.671 12.9697 15.5303C12.829 15.3897 12.75 15.1989 12.75 15C12.75 14.8011 12.829 14.6103 12.9697 14.4697C13.1103 14.329 13.3011 14.25 13.5 14.25H15.75C15.914 14.25 16.0734 14.3037 16.204 14.4029C16.3345 14.5021 16.429 14.6414 16.4728 14.7994L17.3616 18H33.75C33.8656 18 33.9797 18.0267 34.0833 18.078C34.1869 18.1294 34.2772 18.204 34.3472 18.2961C34.4171 18.3881 34.4649 18.4951 34.4867 18.6086C34.5085 18.7222 34.5037 18.8392 34.4728 18.9506ZM32.7628 19.5H17.7787L19.9172 27.2006C19.961 27.3586 20.0555 27.4979 20.186 27.5971C20.3166 27.6963 20.476 27.75 20.64 27.75H29.9062C30.0702 27.75 30.2297 27.6963 30.3602 27.5971C30.4908 27.4979 30.5852 27.3586 30.6291 27.2006L32.7628 19.5Z" fill="#F7F7F7"/>
</svg>
