<svg width="24" height="24" viewBox="0 0 24 24" fill="none" xmlns="http://www.w3.org/2000/svg">
<path opacity="0.2" d="M19.5 9L12 16.5L4.5 9H19.5Z" fill="#827F7F"/>
<path d="M20.1929 8.71313C20.1362 8.57607 20.0401 8.45892 19.9168 8.37648C19.7934 8.29405 19.6484 8.25003 19.5001 8.25H4.5001C4.35168 8.24988 4.20656 8.29381 4.08312 8.37621C3.95967 8.45861 3.86345 8.57579 3.80664 8.71291C3.74982 8.85002 3.73497 9.00092 3.76396 9.14648C3.79294 9.29204 3.86447 9.42573 3.96948 9.53063L11.4695 17.0306C11.5391 17.1004 11.6218 17.1557 11.7129 17.1934C11.8039 17.2312 11.9015 17.2506 12.0001 17.2506C12.0987 17.2506 12.1963 17.2312 12.2873 17.1934C12.3784 17.1557 12.4611 17.1004 12.5307 17.0306L20.0307 9.53063C20.1356 9.42568 20.207 9.29199 20.2358 9.14648C20.2647 9.00096 20.2498 8.85015 20.1929 8.71313ZM12.0001 15.4397L6.31041 9.75H17.6898L12.0001 15.4397Z" fill="#827F7F"/>
</svg>
