<svg width="24" height="24" viewBox="0 0 24 24" fill="none" xmlns="http://www.w3.org/2000/svg">
<path opacity="0.2" d="M11.25 7.5C10.805 7.5 10.37 7.36804 9.99997 7.12081C9.62996 6.87357 9.34157 6.52217 9.17127 6.11104C9.00097 5.6999 8.95642 5.2475 9.04323 4.81105C9.13005 4.37459 9.34434 3.97368 9.65901 3.65901C9.97368 3.34434 10.3746 3.13005 10.811 3.04323C11.2475 2.95642 11.6999 3.00097 12.111 3.17127C12.5222 3.34157 12.8736 3.62996 13.1208 3.99997C13.368 4.36998 13.5 4.80499 13.5 5.25C13.5 5.84674 13.2629 6.41903 12.841 6.84099C12.419 7.26295 11.8467 7.5 11.25 7.5ZM18 12C18 11.555 17.868 11.12 17.6208 10.75C17.3736 10.38 17.0222 10.0916 16.611 9.92127C16.1999 9.75097 15.7475 9.70642 15.311 9.79323C14.8746 9.88005 14.4737 10.0943 14.159 10.409C13.8443 10.7237 13.63 11.1246 13.5432 11.561C13.4564 11.9975 13.501 12.4499 13.6713 12.861C13.8416 13.2722 14.13 13.6236 14.5 13.8708C14.87 14.118 15.305 14.25 15.75 14.25C16.3467 14.25 16.919 14.0129 17.341 13.591C17.7629 13.169 18 12.5967 18 12ZM10.5 18.75C10.5 18.305 10.368 17.87 10.1208 17.5C9.87357 17.13 9.52217 16.8416 9.11104 16.6713C8.6999 16.501 8.2475 16.4564 7.81105 16.5432C7.37459 16.6301 6.97368 16.8443 6.65901 17.159C6.34434 17.4737 6.13005 17.8746 6.04323 18.311C5.95642 18.7475 6.00097 19.1999 6.17127 19.611C6.34157 20.0222 6.62996 20.3736 6.99997 20.6208C7.36998 20.868 7.80499 21 8.25 21C8.84674 21 9.41903 20.7629 9.84099 20.341C10.2629 19.919 10.5 19.3467 10.5 18.75Z" fill="#827F7F"/>
<path d="M14.1562 6.00002L20.25 6.00002C20.4489 6.00002 20.6397 5.92101 20.7803 5.78035C20.921 5.6397 21 5.44894 21 5.25002C21 5.05111 20.921 4.86035 20.7803 4.71969C20.6397 4.57904 20.4489 4.50002 20.25 4.50002L14.1562 4.50002C13.991 3.85471 13.6157 3.28274 13.0895 2.87429C12.5633 2.46584 11.9161 2.24414 11.25 2.24414C10.5839 2.24414 9.93669 2.46584 9.41048 2.87429C8.88428 3.28274 8.50898 3.85471 8.34375 4.50002L3.75 4.50002C3.55109 4.50002 3.36032 4.57904 3.21967 4.71969C3.07902 4.86035 3 5.05111 3 5.25002C3 5.44894 3.07902 5.6397 3.21967 5.78035C3.36032 5.92101 3.55109 6.00002 3.75 6.00002L8.34375 6.00002C8.50898 6.64533 8.88428 7.2173 9.41048 7.62575C9.93669 8.0342 10.5839 8.25591 11.25 8.25591C11.9161 8.25591 12.5633 8.0342 13.0895 7.62575C13.6157 7.2173 13.991 6.64533 14.1562 6.00002ZM9.75 5.25002C9.75 4.95335 9.83797 4.66334 10.0028 4.41667C10.1676 4.16999 10.4019 3.97774 10.676 3.8642C10.9501 3.75067 11.2517 3.72097 11.5426 3.77885C11.8336 3.83672 12.1009 3.97958 12.3107 4.18936C12.5204 4.39914 12.6633 4.66642 12.7212 4.95739C12.7791 5.24836 12.7494 5.54996 12.6358 5.82405C12.5223 6.09814 12.33 6.33241 12.0834 6.49723C11.8367 6.66205 11.5467 6.75002 11.25 6.75002C10.8522 6.75002 10.4706 6.59199 10.1893 6.31068C9.90804 6.02938 9.75 5.64785 9.75 5.25002ZM18.6563 12.75H20.25C20.4489 12.75 20.6397 12.671 20.7803 12.5304C20.921 12.3897 21 12.1989 21 12C21 11.8011 20.921 11.6103 20.7803 11.4697C20.6397 11.329 20.4489 11.25 20.25 11.25H18.6562C18.491 10.6047 18.1157 10.0327 17.5895 9.62429C17.0633 9.21584 16.4161 8.99414 15.75 8.99414C15.0839 8.99414 14.4367 9.21584 13.9105 9.62429C13.3843 10.0327 13.009 10.6047 12.8438 11.25L3.75 11.25C3.55109 11.25 3.36032 11.329 3.21967 11.4697C3.07902 11.6103 3 11.8011 3 12C3 12.1989 3.07902 12.3897 3.21967 12.5304C3.36032 12.671 3.55109 12.75 3.75 12.75L12.8438 12.75C13.009 13.3953 13.3843 13.9673 13.9105 14.3758C14.4367 14.7842 15.0839 15.0059 15.75 15.0059C16.4161 15.0059 17.0633 14.7842 17.5895 14.3758C18.1157 13.9673 18.491 13.3953 18.6563 12.75ZM14.25 12C14.25 11.7034 14.338 11.4133 14.5028 11.1667C14.6676 10.92 14.9019 10.7277 15.176 10.6142C15.4501 10.5007 15.7517 10.471 16.0426 10.5288C16.3336 10.5867 16.6009 10.7296 16.8107 10.9394C17.0204 11.1491 17.1633 11.4164 17.2212 11.7074C17.2791 11.9984 17.2494 12.3 17.1358 12.574C17.0223 12.8481 16.83 13.0824 16.5834 13.2472C16.3367 13.412 16.0467 13.5 15.75 13.5C15.3522 13.5 14.9706 13.342 14.6893 13.0607C14.408 12.7794 14.25 12.3978 14.25 12ZM8.25 21.75C8.9151 21.7494 9.56121 21.5282 10.0871 21.121C10.613 20.7139 10.989 20.1438 11.1563 19.5L20.25 19.5C20.4489 19.5 20.6397 19.421 20.7803 19.2804C20.921 19.1397 21 18.9489 21 18.75C21 18.5511 20.921 18.3603 20.7803 18.2197C20.6397 18.079 20.4489 18 20.25 18H11.1563C10.991 17.3547 10.6157 16.7827 10.0895 16.3743C9.56331 15.9658 8.91613 15.7441 8.25 15.7441C7.58387 15.7441 6.93669 15.9658 6.41048 16.3743C5.88428 16.7827 5.50898 17.3547 5.34375 18H3.75C3.55109 18 3.36032 18.079 3.21967 18.2197C3.07902 18.3603 3 18.5511 3 18.75C3 18.9489 3.07902 19.1397 3.21967 19.2804C3.36032 19.421 3.55109 19.5 3.75 19.5H5.34375C5.51096 20.1438 5.88697 20.7139 6.41288 21.121C6.93879 21.5282 7.5849 21.7494 8.25 21.75ZM6.75 18.75C6.75 18.4534 6.83797 18.1633 7.0028 17.9167C7.16762 17.67 7.40189 17.4777 7.67597 17.3642C7.95006 17.2507 8.25166 17.221 8.54263 17.2788C8.83361 17.3367 9.10088 17.4796 9.31066 17.6894C9.52044 17.8991 9.6633 18.1664 9.72118 18.4574C9.77906 18.7484 9.74935 19.05 9.63582 19.324C9.52229 19.5981 9.33003 19.8324 9.08336 19.9972C8.83668 20.1621 8.54667 20.25 8.25 20.25C7.85218 20.25 7.47064 20.092 7.18934 19.8107C6.90804 19.5294 6.75 19.1478 6.75 18.75Z" fill="#827F7F"/>
</svg>
