<svg width="24" height="24" viewBox="0 0 24 24" fill="none" xmlns="http://www.w3.org/2000/svg">
<path opacity="0.2" d="M22.5 13.5C22.5 16.5 18 18.75 18 18.75C18 18.75 13.5 16.5 13.5 13.5C13.5 12.9033 13.7371 12.331 14.159 11.909C14.581 11.4871 15.1533 11.25 15.75 11.25C16.3467 11.25 16.919 11.4871 17.341 11.909C17.7629 12.331 18 12.9033 18 13.5C18 12.9033 18.2371 12.331 18.659 11.909C19.081 11.4871 19.6533 11.25 20.25 11.25C20.8467 11.25 21.419 11.4871 21.841 11.909C22.2629 12.331 22.5 12.9033 22.5 13.5Z" fill="#827F7F"/>
<path d="M3 6C3 5.80109 3.07902 5.61032 3.21967 5.46967C3.36032 5.32902 3.55109 5.25 3.75 5.25H20.25C20.4489 5.25 20.6397 5.32902 20.7803 5.46967C20.921 5.61032 21 5.80109 21 6C21 6.19891 20.921 6.38968 20.7803 6.53033C20.6397 6.67098 20.4489 6.75 20.25 6.75H3.75C3.55109 6.75 3.36032 6.67098 3.21967 6.53033C3.07902 6.38968 3 6.19891 3 6ZM3.75 12.75H9.75C9.94891 12.75 10.1397 12.671 10.2803 12.5303C10.421 12.3897 10.5 12.1989 10.5 12C10.5 11.8011 10.421 11.6103 10.2803 11.4697C10.1397 11.329 9.94891 11.25 9.75 11.25H3.75C3.55109 11.25 3.36032 11.329 3.21967 11.4697C3.07902 11.6103 3 11.8011 3 12C3 12.1989 3.07902 12.3897 3.21967 12.5303C3.36032 12.671 3.55109 12.75 3.75 12.75ZM11.25 17.25H3.75C3.55109 17.25 3.36032 17.329 3.21967 17.4697C3.07902 17.6103 3 17.8011 3 18C3 18.1989 3.07902 18.3897 3.21967 18.5303C3.36032 18.671 3.55109 18.75 3.75 18.75H11.25C11.4489 18.75 11.6397 18.671 11.7803 18.5303C11.921 18.3897 12 18.1989 12 18C12 17.8011 11.921 17.6103 11.7803 17.4697C11.6397 17.329 11.4489 17.25 11.25 17.25ZM23.25 13.5C23.25 16.9237 18.5363 19.32 18.3356 19.4213C18.2314 19.4734 18.1165 19.5005 18 19.5005C17.8835 19.5005 17.7686 19.4734 17.6644 19.4213C17.4637 19.32 12.75 16.9237 12.75 13.5C12.7505 12.8908 12.9364 12.2963 13.283 11.7954C13.6297 11.2944 14.1206 10.9109 14.6905 10.6958C15.2604 10.4806 15.8823 10.4441 16.4734 10.591C17.0646 10.7379 17.5971 11.0613 18 11.5181C18.4029 11.0613 18.9354 10.7379 19.5266 10.591C20.1177 10.4441 20.7396 10.4806 21.3095 10.6958C21.8794 10.9109 22.3703 11.2944 22.717 11.7954C23.0636 12.2963 23.2495 12.8908 23.25 13.5ZM21.75 13.5C21.75 13.1022 21.592 12.7206 21.3107 12.4393C21.0294 12.158 20.6478 12 20.25 12C19.8522 12 19.4706 12.158 19.1893 12.4393C18.908 12.7206 18.75 13.1022 18.75 13.5C18.75 13.6989 18.671 13.8897 18.5303 14.0303C18.3897 14.171 18.1989 14.25 18 14.25C17.8011 14.25 17.6103 14.171 17.4697 14.0303C17.329 13.8897 17.25 13.6989 17.25 13.5C17.25 13.1022 17.092 12.7206 16.8107 12.4393C16.5294 12.158 16.1478 12 15.75 12C15.3522 12 14.9706 12.158 14.6893 12.4393C14.408 12.7206 14.25 13.1022 14.25 13.5C14.25 15.3919 16.7072 17.1694 18 17.8997C19.2928 17.1703 21.75 15.3928 21.75 13.5Z" fill="#827F7F"/>
</svg>
